<svg xmlns="http://www.w3.org/2000/svg" width="198" height="131" fill="none" viewBox="0 0 198 131"><g clip-path="url(#LightModeSmallGraphic_svg__a)"><path fill="#F9EBFF" d="M35.714 98.759V50.495a16.228 16.228 0 0 1 16.201-16.218H83.8A16.282 16.282 0 0 0 100 18.205c0-8.893 7.33-15.973 16.201-15.973h31.884a16.202 16.202 0 0 1 16.201 16.071V50.22a16.232 16.232 0 0 1-16.201 16.218h-32.014a16.197 16.197 0 0 0-16.2 16.072v16.219a32.056 32.056 0 0 1-32.143 32.044 32.034 32.034 0 0 1-32.014-32.013Z"></path><path fill="#00D2FF" stroke="#000" stroke-linecap="round" stroke-linejoin="round" stroke-width="0.446" d="M138.058 33.277v8.7h-71.96V18.184h56.866v15.094h15.094ZM115.317 82.38a14.706 14.706 0 0 0 .71 10.441 14.589 14.589 0 0 0 4.442 5.518c.69.524 1.425.986 2.196 1.38a14.663 14.663 0 0 0 13.693-.197c-2.197 6.523-5.733 9.88-5.733 9.88h-16.549l5.188-7.143a4.898 4.898 0 0 1-.447-.223l1.34-1.786.317-.42c-.463-.272-.91-.57-1.34-.892-.384-.295-.75-.599-1.094-.92l-1.165 1.544a.9.9 0 0 0 0 .407l-6.848 9.451h-51.41s7.428-7.041 7.428-20.536v-26.83h71.96v12.883a14.626 14.626 0 0 0-15.268-1.339 14.533 14.533 0 0 0-5.125 4.255c-.444.578-.84 1.192-1.183 1.835a13.582 13.582 0 0 0-1.112 2.691Z"></path><path fill="#00D2FF" stroke="#000" stroke-linecap="round" stroke-linejoin="round" stroke-width="0.446" d="M138.058 78.817v10.022a34.236 34.236 0 0 1-.866 7.755 12.689 12.689 0 0 1-3.295 2.357.027.027 0 0 1-.011.002c-.004 0-.008 0-.011-.002a13.078 13.078 0 0 1-12.473-1.853 12.951 12.951 0 0 1-3.657-4.294 13.11 13.11 0 0 1 .5-13.17c.197-.308.407-.607.63-.893A12.988 12.988 0 0 1 123.393 75a13.079 13.079 0 0 1 12.544 1.817c.78.585 1.491 1.256 2.121 2Z"></path><path fill="#00ED64" stroke="#000" stroke-linecap="round" stroke-linejoin="round" stroke-width="0.446" d="M100.558 74.393H76.38a1.362 1.362 0 1 0 0 2.723h24.178a1.362 1.362 0 1 0 0-2.723ZM127.464 88.594H95.469a1.362 1.362 0 1 0 0 2.723h31.995a1.362 1.362 0 1 0 0-2.723Z"></path><path fill="#000" stroke="#000" stroke-linecap="round" stroke-linejoin="round" stroke-width="0.446" d="m138.058 33.277-15.192 2.902 1.866-2.902h13.326Z"></path><path stroke="#000" stroke-dasharray="0.89 0.89" stroke-linecap="round" stroke-linejoin="round" stroke-width="0.446" d="M128.821 75.754h-21.888"></path><path fill="#00ED64" stroke="#000" stroke-linecap="round" stroke-linejoin="round" stroke-width="0.446" d="M122.965 28.862v2.727h-20.733a1.362 1.362 0 0 1-1.339-1.366 1.371 1.371 0 0 1 .839-1.26 1.34 1.34 0 0 1 .523-.101h20.71Z"></path><path stroke="#000" stroke-dasharray="0.89 0.89" stroke-linecap="round" stroke-linejoin="round" stroke-width="0.446" d="M96.8 30.228H74.905M88.469 89.955h-13.45"></path><path fill="#00ED64" stroke="#000" stroke-linecap="round" stroke-linejoin="round" stroke-width="0.446" d="m119.276 102.232-5.187 7.143-4.911 6.768a5.278 5.278 0 0 1-.969-.58c-1.705-1.255-1.209-1.938-1.209-1.938l3.08-4.25 6.848-9.45c.094.365.398.954 1.34 1.669.181.144.373.274.575.388.14.091.285.174.433.25Z"></path><path fill="#00ED64" stroke="#000" stroke-linecap="round" stroke-linejoin="round" stroke-width="0.446" d="m120.897 101.696-.549.759v.023l-5.008 6.919-4.911 6.764a.327.327 0 0 1-.085.067.904.904 0 0 1-.737.062 1.1 1.1 0 0 1-.263-.076l-.143-.058 4.911-6.768 5.187-7.142a5.021 5.021 0 0 1-.446-.224l1.339-1.785c.112.101.216.21.312.326a2.304 2.304 0 0 1 .286.45.914.914 0 0 1 .107.683ZM120.504 99.817l-.317.42-1.339 1.785a4.398 4.398 0 0 1-.576-.388c-.947-.714-1.25-1.304-1.339-1.67a.872.872 0 0 1 0-.406l1.165-1.545a14.389 14.389 0 0 0 2.406 1.803Z"></path><path fill="#00ED64" stroke="#000" stroke-linecap="round" stroke-linejoin="round" stroke-width="0.446" d="m122.665 99.719-.044.062-.626.817-1.339 1.786a.909.909 0 0 1-.299.076 2.121 2.121 0 0 1-1.062-.219 3.942 3.942 0 0 1-.447-.232l1.34-1.786.316-.42c-.462-.272-.909-.57-1.339-.892a14.71 14.71 0 0 1-1.093-.92l.803-1.058c.497.505 1.029.974 1.594 1.402.689.525 1.424.988 2.196 1.384Z"></path><path fill="#000" stroke="#000" stroke-miterlimit="10" stroke-width="0.446" d="M122.665 99.719a14.64 14.64 0 0 1-3.79-2.781 14.568 14.568 0 0 1-2.848-4.117 14.706 14.706 0 0 1-.71-10.442c.284-.948.673-1.863 1.156-2.727a13.36 13.36 0 0 1 1.183-1.835 14.54 14.54 0 0 1 5.125-4.254 14.624 14.624 0 0 0-7.29 6.089c-.528.86-.96 1.774-1.291 2.727a14.64 14.64 0 0 0 .273 10.442c.8 1.971 2.029 3.739 3.598 5.175.344.321.71.625 1.094.92.429.322.876.62 1.339.892.48.293.978.554 1.491.781a14.656 14.656 0 0 0 12.5-.245 14.664 14.664 0 0 1-11.83-.625Z"></path><path stroke="#000" stroke-linecap="round" stroke-linejoin="round" stroke-width="0.446" d="M122.665 99.719a14.64 14.64 0 0 1-3.79-2.781 14.568 14.568 0 0 1-2.848-4.117 14.706 14.706 0 0 1-.71-10.442c.284-.948.673-1.863 1.156-2.727a13.36 13.36 0 0 1 1.183-1.835 14.54 14.54 0 0 1 5.125-4.254 14.624 14.624 0 0 0-7.29 6.089c-.528.86-.96 1.774-1.291 2.727a14.64 14.64 0 0 0 .273 10.442c.8 1.971 2.029 3.739 3.598 5.175.344.321.71.625 1.094.92.429.322.876.62 1.339.892.48.293.978.554 1.491.781v0a14.656 14.656 0 0 0 12.5-.245 14.664 14.664 0 0 1-11.83-.625v0Z"></path><path fill="#000" stroke="#000" stroke-linecap="round" stroke-linejoin="round" stroke-width="0.446" d="m122.634 99.786-.621.826-1.339 1.785a.762.762 0 0 1-.339.09 2.314 2.314 0 0 1-1.054-.228 5.012 5.012 0 0 1-.446-.223l1.339-1.786.317-.42.683-.892 1.433.861.027-.013Z"></path><path fill="#00ED64" stroke="#000" stroke-linecap="round" stroke-linejoin="round" stroke-width="0.446" d="m138.178 75-.12-.085a14.625 14.625 0 0 0-15.268-1.34 14.531 14.531 0 0 0-5.125 4.255 13.36 13.36 0 0 0-1.183 1.835 13.577 13.577 0 0 0-1.156 2.728 14.706 14.706 0 0 0 .71 10.442 14.568 14.568 0 0 0 2.848 4.116 14.68 14.68 0 0 0 3.79 2.781 14.666 14.666 0 0 0 13.692-.196 14.53 14.53 0 0 0 4.625-3.987 14.641 14.641 0 0 0 2.855-10.858A14.657 14.657 0 0 0 138.178 75Zm1.594 19.598a13.077 13.077 0 0 1-5.891 4.342c-.003 0-.007 0-.01-.002a13.078 13.078 0 0 1-12.474-1.853 12.949 12.949 0 0 1-3.656-4.295 13.11 13.11 0 0 1 .5-13.17c.197-.308.406-.607.629-.892A12.995 12.995 0 0 1 123.393 75a13.102 13.102 0 0 1 13.839 1.246c.282.214.549.446.808.674a13.11 13.11 0 0 1 1.732 17.678Z"></path><path fill="#000" stroke="#000" stroke-linecap="round" stroke-linejoin="round" stroke-width="0.446" d="M139.772 94.598a13.077 13.077 0 0 1-5.879 4.34c1.217-.605 2.33-1.4 3.294-2.358a12.58 12.58 0 0 0 1.268-1.433 13.102 13.102 0 0 0-.401-16.352 13.024 13.024 0 0 0-2.116-2.023 13.085 13.085 0 0 0-12.545-1.817 13.102 13.102 0 0 1 13.839 1.246c.282.214.549.446.808.674a13.105 13.105 0 0 1 1.732 17.723ZM120.897 101.696l-.549.759v.023l-5.008 6.919-4.911 6.764c-.04.04-.268.259-.822.129a1.1 1.1 0 0 1-.263-.076l-.143-.058 4.911-6.768 5.187-7.142 1.215-1.675c.079.099.151.203.214.313.026.045.05.091.071.138a.917.917 0 0 1 .098.674Z"></path><path fill="#fff" stroke="#000" stroke-linecap="round" stroke-linejoin="round" stroke-width="0.446" d="M49.214 40.58v20.05h101.232V40.58H49.214Zm93.567 10.942a3.212 3.212 0 0 1-2.281.948 3.216 3.216 0 0 1-2.442-1.122 3.22 3.22 0 0 1 0-4.2c.05-.065.104-.126.161-.184a3.235 3.235 0 0 1 4.562 0 3.234 3.234 0 0 1 0 4.558ZM138.058 33.277h-15.094V18.183l15.094 15.094Z"></path><path stroke="#000" stroke-linecap="round" stroke-linejoin="round" stroke-width="0.446" d="m142.777 51.522 3.661 3.661"></path><path fill="#fff" stroke="#000" stroke-linecap="round" stroke-linejoin="round" stroke-width="0.446" d="M142.782 51.522a3.233 3.233 0 0 1-2.282.948 3.216 3.216 0 0 1-2.442-1.122 3.22 3.22 0 0 1 0-4.2c.05-.065.104-.126.161-.184a3.237 3.237 0 0 1 4.563 0 3.233 3.233 0 0 1 0 4.558Z"></path><path stroke="#000" stroke-linecap="round" stroke-linejoin="round" stroke-width="0.446" d="M57.08 48.37c3.126 0 3.126 4.465 6.25 4.465 3.126 0 3.126-4.465 6.25-4.465 3.126 0 3.126 4.465 6.25 4.465 3.126 0 3.126-4.465 6.25-4.465 3.126 0 3.126 4.465 6.25 4.465 3.126 0 3.126-4.465 6.25-4.465 3.126 0 3.126 4.465 6.251 4.465 3.125 0 3.125-4.465 6.25-4.465s3.125 4.465 6.25 4.465 3.125-4.465 6.25-4.465 3.125 4.465 6.25 4.465"></path><path fill="#000" stroke="#000" stroke-linecap="round" stroke-linejoin="round" stroke-width="0.446" d="M138.062 60.63H66.098v4.526h71.964V60.63Z"></path></g><defs><clipPath id="LightModeSmallGraphic_svg__a"><path fill="#fff" d="M35.714 2.232h128.571v128.571H35.715z"></path></clipPath></defs></svg>